<?xml version="1.0" encoding="UTF-8"?>
<svg id="_图层_2" data-name="图层 2" xmlns="http://www.w3.org/2000/svg" width="718.3" height="285.83" viewBox="0 0 718.3 285.83">
  <defs>
    <style>
      .cls-1 {
        stroke: #15cf92;
        stroke-miterlimit: 10;
        stroke-width: 6px;
      }

      .cls-1, .cls-2 {
        fill: none;
      }

      .cls-3 {
        fill: #15cf92;
      }
    </style>
  </defs>
  <g>
    <path class="cls-2" d="M81.65,34.61c10.91,6.5,20.62,15.62,28.01,26.39,.89-3.19,1.5-6.43,1.74-9.7,.71-9.76-2.27-19.83-9.26-25.58-4.63,1.58-9.26,3.19-13.74,5.29-2.31,1.08-4.55,2.3-6.74,3.61Z"/>
    <path class="cls-2" d="M36.05,105.51c1.18,6.57,4.53,12.45,10.02,15.38,1.31,.7,2.75,1.23,4.27,1.19,1.2-.03,2.39-.41,3.55-.82,1.11-.39,2.21-.81,3.3-1.26-4.14-2.02-8.11-4.62-11.91-7.35-3.15-2.26-6.23-4.64-9.23-7.15Z"/>
    <path class="cls-2" d="M81.47,119.97c.87,.35,1.75,.68,2.64,1,1.16,.41,2.35,.79,3.55,.82,1.52,.04,2.96-.49,4.27-1.19,5.29-2.83,8.57-8.39,9.86-14.67-2.95,2.46-5.98,4.8-9.07,7.02-3.59,2.58-7.35,5.05-11.25,7.02Z"/>
    <path class="cls-2" d="M56.84,34.62c-2.35-1.43-4.75-2.76-7.23-3.92-4.48-2.1-9.11-3.7-13.74-5.29-6.99,5.75-9.97,15.83-9.26,25.58,.25,3.42,.9,6.8,1.86,10.12,7.48-10.85,17.33-20.02,28.38-26.5Z"/>
    <path class="cls-2" d="M69.17,43.76c-8.33,7.26-15.62,16.05-21.83,25.39-3.06,4.59-5.92,9.45-8.07,14.53,7.87,12.09,18.13,22.69,29.96,30.08,11.71-7.43,21.85-17.99,29.64-30.02-2.16-5.21-5.09-10.18-8.22-14.88-6.13-9.21-13.3-17.89-21.49-25.1Zm-11.03,44.31c-3.17,0-5.75-4.3-5.75-9.6s2.57-9.6,5.75-9.6,5.75,4.3,5.75,9.6-2.57,9.6-5.75,9.6Zm20.93,.86c-3.17,0-5.75-4.3-5.75-9.6s2.57-9.6,5.75-9.6,5.75,4.3,5.75,9.6-2.57,9.6-5.75,9.6Z"/>
    <path class="cls-3" d="M102.13,25.71c.08-.03,.16-.05,.24-.08-.1,.01-.19,.02-.29,.04,.02,.01,.03,.03,.05,.04Z"/>
    <path class="cls-3" d="M69.17,43.76c-3.88-3.42-7.99-6.49-12.33-9.14-11.05,6.48-20.9,15.64-28.38,26.5,1.78,6.19,4.6,12.18,7.87,17.79,.94,1.61,1.92,3.2,2.94,4.77,2.14-5.08,5.01-9.93,8.07-14.53,6.21-9.34,13.5-18.13,21.83-25.39Z"/>
    <path class="cls-3" d="M117.78,41.79c-5.73-5.42-13.89-7.91-21.9-6.71-.08,.03-.16,.05-.24,.08,6.99,5.75,9.97,15.83,9.26,25.58-.24,3.27-.85,6.51-1.74,9.7,.33,.48,.66,.96,.98,1.44,4.79,7.28,8.64,15.45,10.05,23.92,.64-.85,1.27-1.7,1.88-2.57,10.99-15.62,15.82-38.1,1.7-51.44Z"/>
    <path class="cls-3" d="M57.19,120.01c-1.09,.45-2.19,.87-3.3,1.26-1.16,.41-2.35,.79-3.55,.82-1.52,.04-2.96-.49-4.27-1.19-5.49-2.93-8.83-8.82-10.02-15.38-6.85-5.74-13.21-12.14-18.65-19.34-.28,1.59-.49,3.19-.59,4.8-.62,10,2.95,20.26,10.6,25.48,6.24,4.26,14.24,4.78,21.78,5.93,6.37,.98,12.74,2.49,19.28,1.75,.56-.06,1.12-.14,1.67-.24-.21-.02-.41-.03-.62-.06-4.25-.48-8.37-1.89-12.34-3.83Z"/>
    <path class="cls-3" d="M69.23,113.75c3.92,2.45,8,4.54,12.23,6.22,3.9-1.97,7.66-4.44,11.25-7.02,3.09-2.22,6.13-4.56,9.07-7.02,.66-3.19,.81-6.56,.43-9.86-.49-4.24-1.69-8.35-3.34-12.34-7.79,12.02-17.94,22.59-29.64,30.02Z"/>
    <path class="cls-3" d="M81.65,34.61c-4.39,2.64-8.55,5.72-12.48,9.15,8.19,7.21,15.36,15.88,21.49,25.1,3.13,4.7,6.06,9.68,8.22,14.88,.97-1.49,1.9-3,2.79-4.53,3.34-5.74,6.22-11.87,7.99-18.2-7.39-10.77-17.1-19.89-28.01-26.39Z"/>
    <path class="cls-3" d="M39.27,83.67c-1.73,4.09-2.99,8.33-3.5,12.69-.35,3.05-.26,6.17,.28,9.14,2.99,2.51,6.08,4.89,9.23,7.15,3.8,2.73,7.77,5.33,11.91,7.35,4.17-1.7,8.19-3.81,12.04-6.25-11.83-7.39-22.09-17.99-29.96-30.08Z"/>
    <path class="cls-3" d="M34.94,70.57c-.95-3.32-1.61-6.7-1.86-10.12-.71-9.76,2.27-19.83,9.26-25.58-.08-.03-.16-.05-.24-.08-8-1.2-16.17,1.29-21.9,6.71-14.11,13.34-9.28,35.83,1.7,51.44,.64,.91,1.3,1.8,1.97,2.68,1.47-8.29,5.26-16.29,9.96-23.43,.36-.54,.73-1.08,1.1-1.62Z"/>
    <path class="cls-3" d="M101.79,105.93c-1.29,6.28-4.58,11.84-9.86,14.67-1.31,.7-2.75,1.23-4.27,1.19-1.2-.03-2.39-.41-3.55-.82-.89-.31-1.77-.65-2.64-1-3.65,1.85-7.43,3.26-11.32,3.92,6.32,.58,12.49-.87,18.66-1.81,7.54-1.15,15.54-1.67,21.78-5.93,7.65-5.22,11.22-15.48,10.6-25.48-.09-1.45-.27-2.88-.5-4.32-5.5,7.3-11.94,13.78-18.89,19.57Z"/>
    <path class="cls-3" d="M35.92,25.37c-.1-.02-.19-.02-.29-.04,.08,.03,.16,.05,.24,.08,.02-.01,.03-.03,.05-.04Z"/>
    <path class="cls-3" d="M69.23,113.75c-3.86,2.45-7.88,4.55-12.04,6.25,3.97,1.94,8.09,3.36,12.34,3.83,.21,.02,.41,.04,.62,.06,3.89-.66,7.67-2.08,11.32-3.92-4.23-1.68-8.32-3.77-12.23-6.22Z"/>
    <path class="cls-3" d="M69.17,43.76c3.93-3.43,8.09-6.51,12.48-9.15-3.95-2.35-8.05-4.36-12.25-5.97-4.31,1.6-8.51,3.61-12.56,5.98,4.34,2.65,8.45,5.72,12.33,9.14Z"/>
    <path class="cls-3" d="M36.05,105.51c-.54-2.98-.63-6.09-.28-9.14,.5-4.36,1.77-8.6,3.5-12.69-1.02-1.57-2-3.16-2.94-4.77-3.27-5.61-6.09-11.6-7.87-17.79-.37,.54-.74,1.07-1.1,1.62-4.7,7.15-8.49,15.14-9.96,23.43,5.44,7.2,11.8,13.6,18.65,19.34Z"/>
    <path class="cls-3" d="M109.66,61c-1.77,6.34-4.65,12.47-7.99,18.2-.89,1.53-1.83,3.04-2.79,4.53,1.65,3.98,2.85,8.1,3.34,12.34,.38,3.3,.23,6.67-.43,9.86,6.95-5.8,13.39-12.28,18.89-19.57-1.4-8.47-5.26-16.63-10.05-23.92-.32-.49-.65-.96-.98-1.44Z"/>
    <ellipse class="cls-3" cx="58.15" cy="78.47" rx="5.75" ry="9.6"/>
    <ellipse class="cls-3" cx="79.08" cy="79.33" rx="5.75" ry="9.6"/>
  </g>
  <rect class="cls-1" x="4" y="10.47" width="128" height="128" rx="32.7" ry="32.7"/>
</svg>